<svg width="26" height="24" viewBox="0 0 26 24" fill="none" xmlns="http://www.w3.org/2000/svg">
<path d="M1.49559 22.5V1.5V7.77975V6.92325V22.5ZM5.98234 12.75H12.0021C12.2149 12.75 12.3928 12.6784 12.5356 12.5351C12.6784 12.3919 12.7499 12.2135 12.7499 12C12.7499 11.7865 12.6784 11.6081 12.5356 11.4649C12.3928 11.3216 12.2149 11.25 12.0021 11.25H5.98234C5.76947 11.25 5.59162 11.3216 5.44879 11.4649C5.30596 11.6081 5.23455 11.7865 5.23455 12C5.23455 12.2135 5.30596 12.3919 5.44879 12.5351C5.59162 12.6784 5.76947 12.75 5.98234 12.75ZM5.98234 18.75H12.0021C12.2149 18.75 12.3928 18.6784 12.5356 18.5351C12.6784 18.3919 12.7499 18.2135 12.7499 18C12.7499 17.7865 12.6784 17.6081 12.5356 17.4649C12.3928 17.3216 12.2149 17.25 12.0021 17.25H5.98234C5.76947 17.25 5.59162 17.3216 5.44879 17.4649C5.30596 17.6081 5.23455 17.7865 5.23455 18C5.23455 18.2135 5.30596 18.3919 5.44879 18.5351C5.59162 18.6784 5.76947 18.75 5.98234 18.75ZM5.98234 6.75H17.947C18.1599 6.75 18.3377 6.67838 18.4806 6.53513C18.6234 6.39188 18.6948 6.2135 18.6948 6C18.6948 5.7865 18.6234 5.60812 18.4806 5.46487C18.3377 5.32162 18.1599 5.25 17.947 5.25H5.98234C5.76947 5.25 5.59162 5.32162 5.44879 5.46487C5.30596 5.60812 5.23455 5.7865 5.23455 6C5.23455 6.2135 5.30596 6.39188 5.44879 6.53513C5.59162 6.67838 5.76947 6.75 5.98234 6.75ZM2.41612 24C1.72765 24 1.15285 23.7688 0.691708 23.3063C0.230569 22.8438 0 22.2673 0 21.5768V2.42325C0 1.73275 0.230569 1.15625 0.691708 0.69375C1.15285 0.23125 1.72765 0 2.41612 0H21.5132C22.2017 0 22.7765 0.23125 23.2377 0.69375C23.6988 1.15625 23.9294 1.73275 23.9294 2.42325V7.65563C23.9294 7.86913 23.8579 8.0475 23.7151 8.19075C23.5723 8.334 23.3944 8.40563 23.1816 8.40563C22.9687 8.40563 22.7908 8.334 22.648 8.19075C22.5052 8.0475 22.4338 7.86913 22.4338 7.65563V2.42325C22.4338 2.19225 22.3379 1.98063 22.1462 1.78838C21.9546 1.59613 21.7436 1.5 21.5132 1.5H2.41612C2.1858 1.5 1.9748 1.59613 1.78311 1.78838C1.59143 1.98063 1.49559 2.19225 1.49559 2.42325V21.5768C1.49559 21.8078 1.59143 22.0194 1.78311 22.2116C1.9748 22.4039 2.1858 22.5 2.41612 22.5H8.22572C8.43859 22.5 8.61644 22.5716 8.75927 22.7149C8.9021 22.8581 8.97351 23.0365 8.97351 23.25C8.97351 23.4635 8.9021 23.6419 8.75927 23.7851C8.61644 23.9284 8.43859 24 8.22572 24H2.41612ZM17.1618 15.6143C16.5731 15.024 16.2787 14.3193 16.2787 13.5C16.2787 12.6807 16.5731 11.976 17.1618 11.3857C17.7506 10.7952 18.4533 10.5 19.2699 10.5C20.0867 10.5 20.7895 10.7952 21.3783 11.3857C21.9668 11.976 22.261 12.6807 22.261 13.5C22.261 14.3193 21.9668 15.024 21.3783 15.6143C20.7895 16.2048 20.0867 16.5 19.2699 16.5C18.4533 16.5 17.7506 16.2048 17.1618 15.6143ZM19.2699 19.5C20.1847 19.5 21.0931 19.589 21.9952 19.767C22.8973 19.9447 23.7874 20.2115 24.6656 20.5673C25.0856 20.7345 25.413 21.0071 25.6478 21.3851C25.8826 21.7629 26 22.1845 26 22.65V22.7884C26 23.1366 25.8855 23.4256 25.6564 23.6554C25.4273 23.8851 25.1393 24 24.7923 24H13.7478C13.4008 24 13.1128 23.8851 12.8837 23.6554C12.6544 23.4256 12.5397 23.1366 12.5397 22.7884V22.65C12.5397 22.1845 12.6573 21.7629 12.8923 21.3851C13.1271 21.0071 13.4545 20.7345 13.8745 20.5673C14.7143 20.2115 15.5852 19.9447 16.4873 19.767C17.3894 19.589 18.3169 19.5 19.2699 19.5Z" fill="#F0F0F0"/>
</svg>
