<svg width="27" height="24" viewBox="0 0 27 24" fill="none" xmlns="http://www.w3.org/2000/svg">
<path d="M1.5 18.9385V21.6112C1.5 21.8389 1.59613 22.0475 1.78838 22.237C1.98063 22.4266 2.19225 22.5213 2.42325 22.5213H24.5768C24.8078 22.5213 25.0194 22.4266 25.2116 22.237C25.4039 22.0475 25.5 21.8389 25.5 21.6112V18.9385H1.5ZM7.5 4.77723V2.38843C7.5 1.70799 7.73125 1.13981 8.19375 0.683887C8.65625 0.227962 9.23275 0 9.92325 0H17.0768C17.7673 0 18.3438 0.227962 18.8063 0.683887C19.2688 1.13981 19.5 1.70799 19.5 2.38843V4.77723H24.5768C25.2673 4.77723 25.8438 5.00519 26.3063 5.46111C26.7688 5.91704 27 6.48534 27 7.16603V21.6112C27 22.2919 26.7688 22.8602 26.3063 23.3161C25.8438 23.772 25.2673 24 24.5768 24H2.42325C1.73275 24 1.15625 23.772 0.69375 23.3161C0.23125 22.8602 0 22.2919 0 21.6112V7.16603C0 6.48534 0.23125 5.91704 0.69375 5.46111C1.15625 5.00519 1.73275 4.77723 2.42325 4.77723H7.5ZM1.5 15.7534H25.5V7.16603C25.5 6.93831 25.4039 6.72969 25.2116 6.54018C25.0194 6.35066 24.8078 6.2559 24.5768 6.2559H19.5V7.90536C19.5 8.11558 19.4284 8.2913 19.2851 8.43251C19.1419 8.57397 18.9635 8.6447 18.75 8.6447C18.5365 8.6447 18.3581 8.57397 18.2149 8.43251C18.0716 8.2913 18 8.11558 18 7.90536V6.2559H9V7.90536C9 8.11558 8.92838 8.2913 8.78512 8.43251C8.64188 8.57397 8.4635 8.6447 8.25 8.6447C8.0365 8.6447 7.85813 8.57397 7.71488 8.43251C7.57163 8.2913 7.5 8.11558 7.5 7.90536V6.2559H2.42325C2.19225 6.2559 1.98063 6.35066 1.78838 6.54018C1.59613 6.72969 1.5 6.93831 1.5 7.16603V15.7534ZM9 4.77723H18V2.38843C18 2.16096 17.9039 1.95247 17.7116 1.76295C17.5194 1.57343 17.3078 1.47867 17.0768 1.47867H9.92325C9.69225 1.47867 9.48063 1.57343 9.28838 1.76295C9.09613 1.95247 9 2.16096 9 2.38843V4.77723ZM1.5 21.6112V6.2559H2.42325C2.19225 6.2559 1.98063 6.35066 1.78838 6.54018C1.59613 6.72969 1.5 6.93831 1.5 7.16603V21.6112C1.5 21.8389 1.59613 22.0475 1.78838 22.237C1.98063 22.4266 2.19225 22.5213 2.42325 22.5213H1.5V21.6112Z" fill="#F0F0F0"/>
</svg>
