<svg width="31" height="23" viewBox="0 0 31 23" fill="none" xmlns="http://www.w3.org/2000/svg">
<path d="M8.07522 23C7.36841 23 6.76649 22.752 6.26948 22.256C5.77221 21.7597 5.52358 21.1588 5.52358 20.4534V8.72796L1.27122 11.8898C1.08484 12.0109 0.89241 12.0618 0.693922 12.0427C0.495697 12.0235 0.32564 11.9209 0.18375 11.7349C0.0421237 11.5491 -0.0176333 11.3572 0.00447942 11.1591C0.0268554 10.961 0.131233 10.7913 0.317611 10.6499L13.9465 0.479215C14.1753 0.309493 14.4188 0.187193 14.6771 0.112315C14.9353 0.0374378 15.2051 0 15.4865 0C15.7679 0 16.0378 0.0374378 16.296 0.112315C16.5543 0.187193 16.7978 0.309493 17.0265 0.479215L22.3513 4.43511V2.41618C22.3513 2.00186 22.4956 1.65072 22.7841 1.36277C23.0726 1.07482 23.4245 0.930845 23.8396 0.930845C24.2548 0.930845 24.6066 1.07482 24.8951 1.36277C25.1836 1.65072 25.3279 2.00186 25.3279 2.41618V6.66646L30.6859 10.6499C30.8662 10.7913 30.969 10.961 30.9943 11.1591C31.0195 11.3572 30.9614 11.5491 30.8197 11.7349C30.6778 11.9209 30.5077 12.0235 30.3092 12.0427C30.1109 12.0618 29.9186 12.0109 29.7323 11.8898L25.4799 8.72796V20.4534C25.4799 21.1588 25.2313 21.7597 24.734 22.256C24.237 22.752 23.6351 23 22.9283 23H19.9821C19.2753 23 18.6734 22.752 18.1764 22.256C17.6791 21.7597 17.4305 21.1588 17.4305 20.4534V15.7243C17.4305 15.4416 17.3394 15.2092 17.1572 15.0271C16.9748 14.8453 16.742 14.7544 16.4587 14.7544H14.5144C14.2311 14.7544 13.9983 14.8453 13.8158 15.0271C13.6337 15.2092 13.5426 15.4416 13.5426 15.7243V20.4534C13.5426 21.1588 13.294 21.7597 12.7967 22.256C12.2997 22.752 11.6978 23 10.9909 23H8.07522ZM8.07522 21.4236H10.9909C11.2745 21.4236 11.5074 21.3327 11.6899 21.1509C11.872 20.9689 11.9631 20.7363 11.9631 20.4534V15.7243C11.9631 15.0191 12.2116 14.4184 12.7086 13.9221C13.2059 13.4261 13.8078 13.178 14.5144 13.178H16.4587C17.1653 13.178 17.7672 13.4261 18.2644 13.9221C18.7615 14.4184 19.01 15.0191 19.01 15.7243V20.4534C19.01 20.7363 19.101 20.9689 19.2832 21.1509C19.4656 21.3327 19.6986 21.4236 19.9821 21.4236H22.9283C23.2118 21.4236 23.4446 21.3327 23.6268 21.1509C23.8092 20.9689 23.9004 20.7363 23.9004 20.4534V7.56657L16.0638 1.75844C15.9017 1.63706 15.7092 1.57637 15.4865 1.57637C15.2638 1.57637 15.0714 1.63706 14.9092 1.75844L7.10306 7.56657V20.4534C7.10306 20.7363 7.19427 20.9689 7.3767 21.1509C7.55887 21.3327 7.79171 21.4236 8.07522 21.4236ZM12.6312 8.82175H18.3418C18.3418 8.08217 18.0564 7.4733 17.4854 6.99513C16.9141 6.51723 16.2478 6.27828 15.4865 6.27828C14.7252 6.27828 14.059 6.51723 13.4877 6.99513C12.9167 7.4733 12.6312 8.08217 12.6312 8.82175Z" fill="#F0F0F0"/>
</svg>
