<svg width="30" height="23" viewBox="0 0 30 23" fill="none" xmlns="http://www.w3.org/2000/svg">
<path d="M9.90867 22.7736C9.27646 22.7736 8.73523 22.5485 8.28498 22.0983C7.83473 21.648 7.6096 21.1067 7.6096 20.4742V2.29943C7.6096 1.66698 7.83473 1.12563 8.28498 0.67538C8.73523 0.225126 9.27646 0 9.90867 0H20.0913C20.7235 0 21.2648 0.225126 21.715 0.67538C22.1653 1.12563 22.3904 1.66698 22.3904 2.29943V20.4742C22.3904 21.1067 22.1653 21.648 21.715 22.0983C21.2648 22.5485 20.7235 22.7736 20.0913 22.7736H9.90867ZM20.967 20.4742V2.29943C20.967 2.04393 20.885 1.83399 20.7208 1.66959C20.5566 1.50543 20.3468 1.42335 20.0913 1.42335H9.90867C9.65318 1.42335 9.44335 1.50543 9.27919 1.66959C9.11503 1.83399 9.03295 2.04393 9.03295 2.29943V20.4742C9.03295 20.7297 9.11503 20.9397 9.27919 21.104C9.44335 21.2682 9.65318 21.3503 9.90867 21.3503H20.0913C20.3468 21.3503 20.5566 21.2682 20.7208 21.104C20.885 20.9397 20.967 20.7297 20.967 20.4742ZM15.8362 5.81617C16.0452 5.60576 16.1497 5.34516 16.1497 5.0344C16.1497 4.72363 16.0446 4.46387 15.8344 4.25511C15.624 4.04612 15.3634 3.94162 15.0527 3.94162C14.7419 3.94162 14.4821 4.04671 14.2734 4.25689C14.0644 4.46707 13.9599 4.72755 13.9599 5.03831C13.9599 5.34908 14.065 5.60896 14.2752 5.81795C14.4853 6.02695 14.7458 6.13145 15.0566 6.13145C15.3673 6.13145 15.6272 6.02636 15.8362 5.81617ZM0 14.2335V8.54012C0 8.33847 0.068321 8.16945 0.204963 8.03305C0.341605 7.89664 0.510865 7.82844 0.712744 7.82844C0.914622 7.82844 1.08353 7.89664 1.21946 8.03305C1.35539 8.16945 1.42335 8.33847 1.42335 8.54012V14.2335C1.42335 14.4352 1.35503 14.6042 1.21839 14.7406C1.08198 14.877 0.912725 14.9452 0.710609 14.9452C0.50873 14.9452 0.339826 14.877 0.203895 14.7406C0.0679652 14.6042 0 14.4352 0 14.2335ZM3.94162 17.0802V5.69341C3.94162 5.49177 4.00994 5.32275 4.14658 5.18634C4.28322 5.04994 4.45248 4.98173 4.65436 4.98173C4.85624 4.98173 5.02515 5.04994 5.16108 5.18634C5.29701 5.32275 5.36497 5.49177 5.36497 5.69341V17.0802C5.36497 17.2819 5.29665 17.4509 5.16001 17.5873C5.0236 17.7237 4.85434 17.7919 4.65223 17.7919C4.45035 17.7919 4.28144 17.7237 4.14551 17.5873C4.00958 17.4509 3.94162 17.2819 3.94162 17.0802ZM28.5766 14.2335V8.54012C28.5766 8.33847 28.645 8.16945 28.7816 8.03305C28.918 7.89664 29.0873 7.82844 29.2894 7.82844C29.4913 7.82844 29.6602 7.89664 29.7961 8.03305C29.932 8.16945 30 8.33847 30 8.54012V14.2335C30 14.4352 29.9317 14.6042 29.795 14.7406C29.6584 14.877 29.4891 14.9452 29.2873 14.9452C29.0854 14.9452 28.9165 14.877 28.7805 14.7406C28.6446 14.6042 28.5766 14.4352 28.5766 14.2335ZM24.635 17.0802V5.69341C24.635 5.49177 24.7033 5.32275 24.84 5.18634C24.9764 5.04994 25.1457 4.98173 25.3478 4.98173C25.5497 4.98173 25.7186 5.04994 25.8545 5.18634C25.9904 5.32275 26.0584 5.49177 26.0584 5.69341V17.0802C26.0584 17.2819 25.9901 17.4509 25.8534 17.5873C25.7168 17.7237 25.5475 17.7919 25.3456 17.7919C25.1438 17.7919 24.9749 17.7237 24.8389 17.5873C24.703 17.4509 24.635 17.2819 24.635 17.0802ZM9.03295 20.4742V21.3503V1.42335V20.4742Z" fill="#F0F0F0"/>
</svg>
