<svg width="29" height="19" viewBox="0 0 29 19" fill="none" xmlns="http://www.w3.org/2000/svg">
<path d="M14.8917 16.0271L27.1466 3.77254C27.28 3.63895 27.3467 3.47684 27.3467 3.28624C27.3467 3.09564 27.28 2.93353 27.1466 2.79994L26.1855 1.83923C26.0522 1.70564 25.8902 1.63884 25.6996 1.63884C25.5088 1.63884 25.3467 1.70564 25.2133 1.83923L12.9584 14.0938L14.8917 16.0271ZM1.48716 13.4647C1.48716 14.3551 1.79228 15.0558 2.40251 15.5668C3.01274 16.0777 3.96415 16.4237 5.25674 16.6049C5.46271 16.6354 5.63101 16.7293 5.76163 16.8867C5.89225 17.0438 5.95459 17.2254 5.94864 17.4314C5.94294 17.643 5.86573 17.8185 5.71702 17.9578C5.5683 18.0969 5.40062 18.1512 5.21398 18.1207C3.51119 17.911 2.21649 17.4158 1.32989 16.635C0.443298 15.8542 0 14.7975 0 13.4647C0 12.0633 0.601061 10.9275 1.80318 10.0573C3.0053 9.1868 4.67886 8.65241 6.82384 8.45412C8.01927 8.34159 8.9159 8.10563 9.51374 7.74623C10.1113 7.38684 10.4101 6.89161 10.4101 6.26056C10.4101 5.50558 10.107 4.91121 9.50072 4.47745C8.89446 4.0437 7.90116 3.72099 6.52083 3.50931C6.31486 3.47883 6.13702 3.38823 5.98731 3.23754C5.8376 3.08708 5.77811 2.90887 5.80885 2.7029C5.83934 2.49123 5.94133 2.31723 6.11483 2.18091C6.28833 2.04459 6.48749 2.00121 6.7123 2.05078C8.44558 2.32913 9.74313 2.81865 10.6049 3.51935C11.4665 4.22005 11.8973 5.13379 11.8973 6.26056C11.8973 7.30727 11.4679 8.15 10.609 8.78873C9.7502 9.42747 8.52478 9.81165 6.93277 9.94128C5.11769 10.1034 3.75632 10.4757 2.84866 11.0581C1.94099 11.6406 1.48716 12.4428 1.48716 13.4647ZM14.8831 18.1493L10.8366 14.1024L24.4095 0.558044C24.791 0.176587 25.2272 -0.00930818 25.7182 0.00035836C26.209 0.00977704 26.6451 0.195672 27.0265 0.558044L28.4278 1.95932C28.8093 2.34053 29 2.78135 29 3.28178C29 3.78246 28.8093 4.2234 28.4278 4.60461L14.8831 18.1493ZM10.8592 18.9758C10.6094 19.0368 10.3902 18.9729 10.2015 18.7843C10.0127 18.5954 9.94886 18.3761 10.0101 18.1262L10.8366 14.1024L14.8831 18.1493L10.8592 18.9758Z" fill="#F0F0F0"/>
</svg>
